<svg xmlns="http://www.w3.org/2000/svg" viewBox="0 0 512 512"><style type="text/css">.st0{fill:#FFFFFF;}</style><path class="st0" d="M499.5,332c0-5.7-3.1-11.1-8.2-14.1L444.7,291c2.1-11.4,3.3-23.9,3.3-35c0-11.1-1.2-23.6-3.3-35l46.6-26.9 c5.1-2.9,8.2-8.4,8.2-14.1c0-14.1-42-99-63.9-99c-2.8,0-5.7,0.7-8.2,2.2l-46.7,27c-17.7-15.2-38.2-27-60.6-35V21.3 c0-7.5-5.2-14.3-12.5-15.8C290.8,2,273.7,0,256,0s-34.9,2-51.5,5.5C197.2,7,192,13.8,192,21.3v53.9c-22.4,7.9-42.9,19.8-60.6,34.9 L84.6,83.2c-2.5-1.5-5.4-2.2-8.2-2.2c-19.7,0-63.9,81.9-63.9,99c0,5.7,3.1,11.1,8.2,14.1L67.3,221c-2.1,11.4-3.3,23-3.3,35 c0,12,1.2,23.7,3.3,35l-46.6,26.9c-5.1,2.9-8.2,8.4-8.2,14.1c0,14.1,42,99,63.9,99c2.8,0,5.7-0.7,8.2-2.2l46.7-27 c17.7,15.1,38.2,27,60.6,34.9v53.9c0,7.5,5.2,14.3,12.5,15.8c16.7,3.5,33.8,5.5,50.6,5.5s34.9-2,51.5-5.5 c8.2-2.4,13.4-8.3,13.4-15.8v-53.9c22.4-7.9,42.9-19.8,60.6-35l46.7,27c2.6,1.5,5.4,2.2,8.2,2.2C455.3,431,499.5,349.1,499.5,332z M256,336c-44.1,0-80-35.9-80-80s35.9-80,80-80s80,35.9,80,80S300.1,336,256,336z"/></svg>
