<svg version="1.1" id="Layer_1" xmlns="http://www.w3.org/2000/svg" xmlns:xlink="http://www.w3.org/1999/xlink" x="0px" y="0px" viewBox="0 0 139.4 38.2" style="enable-background:new 0 0 139.4 38.2;" xml:space="preserve">
<style type="text/css">
	.st0{fill:#FFFFFF;}
</style>
<g>
	<path class="st0" d="M19.4,19.7h-3.9L12.4,7.3L9.2,19.7H5.4L0.6,1h3.8l3,12.2L10.5,1h3.8l3.1,12.3L20.5,1h3.8L19.4,19.7z"/>
	<path class="st0" d="M44.6,10.3c0,3.3-0.7,5.7-2.1,7.3c-1.4,1.6-3.4,2.4-6,2.4c-2.8,0-4.8-0.9-6.1-2.6c-1.3-1.7-2-4.1-2-7.2
		c0-3.1,0.7-5.5,2-7.2s3.3-2.5,6.1-2.5c2.8,0,4.8,0.8,6.1,2.5C44,4.8,44.6,7.2,44.6,10.3z M40.7,10.3c0-2.2-0.3-3.8-0.9-4.8
		c-0.6-1-1.7-1.5-3.2-1.5c-1.5,0-2.6,0.5-3.2,1.5c-0.6,1-0.9,2.6-0.9,4.8c0,2.2,0.3,3.8,1,4.8c0.6,1,1.7,1.5,3.2,1.5
		c1.5,0,2.6-0.5,3.2-1.5C40.4,14.2,40.7,12.6,40.7,10.3z"/>
	<path class="st0" d="M61.1,19.7l-4.8-7.1h-1.9v7.1h-3.8V1h6.8c2.4,0,4.2,0.4,5.3,1.3c1.1,0.9,1.7,2.3,1.7,4.3c0,1.6-0.3,2.9-1,3.8
		s-1.6,1.6-2.9,1.8l5,7.5H61.1z M60.5,6.7c0-1-0.2-1.6-0.7-1.9c-0.5-0.3-1.3-0.5-2.4-0.5h-3v5h2.8c0.9,0,1.5-0.1,2-0.2
		c0.5-0.2,0.8-0.4,1-0.8C60.4,7.9,60.5,7.4,60.5,6.7z"/>
	<path class="st0" d="M85.3,10.3c0,2.3-0.3,4.1-0.9,5.4c-0.6,1.4-1.6,2.4-2.8,3c-1.3,0.6-3,0.9-5.3,0.9h-5.7V1h5.7
		c2.2,0,4,0.3,5.3,1c1.3,0.6,2.3,1.6,2.9,3C85,6.3,85.3,8.1,85.3,10.3z M81.4,10.3c0-1.6-0.2-2.8-0.5-3.6S80,5.3,79.2,5
		c-0.8-0.3-1.9-0.5-3.4-0.5h-1.5v11.7h1.5c1.5,0,2.6-0.2,3.4-0.5c0.8-0.3,1.3-0.9,1.6-1.7C81.2,13.1,81.4,11.9,81.4,10.3z"/>
</g>
<g>
	<path class="st0" d="M95.1,16.2V1h-3.8v18.7c0.3-0.2,0.6-0.4,0.9-0.6c1-0.7,2.1-1.4,3.3-1.9c0.6-0.2,1.2-0.3,1.7-0.3
		c1.1,0,2.8,0.4,3.9,2.8h1.8v-3.5H95.1z"/>
	<path class="st0" d="M89.6,33.9c0.3-3.1,1.2-7.5,2.3-10.9c-1,0.1-1.6-0.3-2-0.7c-0.3-0.3-0.2-0.6,0.3-0.8c1.6-0.5,3.6-2.5,5.6-3.2
		c1.8-0.7,3.7-0.1,4.6,3c0.3,0.9,0.1,2.2-0.4,3.2c-0.4,1.1-1.6,2.8-3.1,4.1c0.9,0.3,1.8,1,2.1,2c0.2,0.7,0.1,1.7-0.4,2.7
		c-0.8,1.5-2.7,3-4.1,3.8c-0.4,0.2-0.8,0.3-1.1,0.4c-0.5,0.1-0.9,0.1-1.3,0.1c-1.3-0.2-2.4-1.1-2.6-1.9
		C89.5,35.3,89.5,34.6,89.6,33.9z M97,30.5c-0.1-0.5-0.7-0.8-2-0.6c-1,0.5-2,0.8-2.6,0.8c-0.3,1.5-0.6,3-0.7,4.3
		c0,0.8,0.2,1,0.8,0.8c1.5-0.6,3.4-2.3,4.2-3.9C97,31.4,97.1,30.8,97,30.5z M93,28.6c4.1-2.4,6.1-6,5.6-7.7
		c-0.2-0.6-0.7-0.8-1.2-0.7c-0.7,0.2-1.7,0.9-3.3,1.9c0.2,0.6,0.2,1.4-0.1,2.8C93.8,25.5,93.6,26.3,93,28.6z"/>
	<path class="st0" d="M105.4,22.4c1-0.3,1.7,0.1,2.1,0.7l0.3-1c0.2-0.6,0.6-0.8,1-0.5c0.6,0.4,1.2,1.5,0.8,3.1
		c-0.3,1.7-1.8,5.2-1.3,7c0.1,0.4,0.3,0.6,0.5,0.5c1-0.3,1.8-2.4,2.2-4.4c0.2-0.6,0.4-0.7,0.8-0.2c0.2,0.2,0.5,0.9,0.4,1.8
		c-0.3,1.7-1.6,3.5-3.3,4c-1.3,0.4-2.3-0.1-2.8-1.1c-0.6,1-1.6,2.1-2.6,2.4c-1.6,0.4-2.7-0.5-3.2-2.1c-0.3-1.2-0.2-2.8,0.4-4.4
		C102.1,24.6,104,22.8,105.4,22.4z M106,28.7c0.6-2.1,0.7-3.5,0.5-4.2c-0.1-0.3-0.2-0.5-0.5-0.4c-0.5,0.1-1.9,2.3-2.7,4.9
		c-0.5,1.5-0.5,3-0.3,3.9c0.1,0.5,0.3,0.8,0.6,0.7C104.5,33.2,105.3,31.3,106,28.7z"/>
	<g>
		<path class="st0" d="M110.9,18.6c0.4-0.1,0.8-0.2,1.2-0.3c0.2-0.8,0.5-1.5,0.6-2.1h-0.8v-4.5h7V8.3h-7v-4h8.3V1h-12.2v18.7h1.4
			C109.6,19.3,110,18.8,110.9,18.6z"/>
	</g>
	<path class="st0" d="M111.4,27.1c0.2-1.5,0.7-3.9,1.2-6c-0.8,0.1-1.4-0.1-1.8-0.4c-0.5-0.4-0.3-0.7,0.4-0.9
		c0.6-0.2,1.1-0.3,1.9-0.5c0.4-1.4,0.8-2.7,1.1-3.6c0.3-0.7,0.7-0.8,1.1-0.3c0.2,0.3,0.4,0.6,0.5,1c0.1,0.5,0.2,1.2,0,2.1
		c0.7-0.2,1.3-0.5,3.1-1c0.4-1.6,0.8-2.8,1.1-3.5c0.3-0.7,0.7-0.7,1.1-0.2c0.2,0.3,0.4,0.6,0.5,1c0.1,0.5,0.2,1.1,0,2
		c0.9-0.1,1.4,0.2,1.7,0.5c0.4,0.4,0.2,0.7-0.4,0.9c-0.5,0.1-1,0.2-1.7,0.4c-0.7,2.3-1.4,5.2-1.8,7.4c-0.1,0.8-0.1,1.5,0.1,2.1
		c0.2,0.8,0.6,1.3,1.1,1.2c1-0.3,1.9-2.4,2.4-4.6c0.1-0.7,0.7-0.9,1.1-0.3c0.3,0.6,0.3,1,0.2,1.7c-0.2,0.9-1.2,3.6-3.6,4.3
		c-1,0.3-2.2-0.2-2.8-1.1c-0.5,1.1-1.5,2.3-3,2.7s-2.9-0.4-3.4-2.3C111.3,28.9,111.2,28,111.4,27.1z M115.4,20.3
		c-0.4,1.3-1.3,4.7-1.7,7c-0.1,0.8-0.1,1.5,0,2.1c0.2,0.8,0.6,1.3,1.1,1.2c1-0.3,1.9-2.6,2.2-4.7c0.2-1.6,0.8-4.4,1.4-6.7
		C116.6,19.9,116.1,20.1,115.4,20.3z"/>
	<path class="st0" d="M129.5,13.2c0,3.4-2,7.3-4,9.6c-0.2,1.5-0.2,2.8,0.1,3.7c0.2,0.6,0.5,1.1,0.8,1c1.2-0.3,2.3-2.5,2.8-4.7
		c0.2-0.8,0.8-0.9,1.1-0.3c0.2,0.4,0.4,1,0.2,1.8c-0.2,0.9-1.6,3.6-3.8,4.2c-1.6,0.4-2.9-0.2-3.4-2.1c-0.1-0.5-0.2-1-0.2-1.6
		c-0.1-4.7,1.5-10.5,3.4-13.9c0.4-0.6,0.8-0.9,1.4-0.6c0.7,0.4,1.2,1,1.4,1.7C129.4,12.4,129.5,12.7,129.5,13.2z M127,16.2
		c-0.4,1.4-1,3.7-1.1,4.2c0.8-1.4,1.4-2.9,1.8-4.1c0.5-1.8,0.5-3,0.3-3.1C127.9,13.1,127.5,14.3,127,16.2z"/>
	<path class="st0" d="M133.8,22.4c-0.6,0.2-1.3,0.2-2.1-0.1c0,0.6,0.1,1.2,0.2,1.6c0.3,1.2,1,1.9,1.8,1.7c2-0.5,3.3-3,3.9-5
		c0.2-0.5,0.5-0.7,0.9-0.2c0.1,0.2,0.4,1,0.1,1.8c-0.7,1.9-2.5,3.8-4.6,4.3c-2.5,0.7-4.3-0.6-4.9-2.7c-0.3-1-0.3-2.1,0-3.3
		c0.6-3.2,2.4-5.2,4-5.6c0.4-0.1,0.7-0.1,1,0c0.9,0.2,1.5,0.5,2,0.9c0.2,0.2,0.4,0.6,0.5,0.9C137.2,18.4,136.1,21.7,133.8,22.4z
		 M131.8,21.2c0.3,0.1,0.5,0.1,0.6,0c0.6-0.2,1.3-1.2,1.6-2.1c0.5-1.3,0.7-2.7,0.4-2.8C133.9,16.1,132.4,18.2,131.8,21.2z"/>
</g>
</svg>
